# xmcd
#
# Track frame offsets: 
#        187
#        16945
#        36002
#        55065
#        75285
#        99655
#        119570
#        139930
#        160990
#        181945
#
# Disc length: 2727 seconds
#
# Revision: 3
# Processed by: cddbd v1.5.2PL0 Copyright (c) Steve Scherf et al.
# Submitted via: ExactAudioCopy v1.0b1
#
DISCID=780aa50a
DTITLE=Jibri - WiseOne
DYEAR=1991
DGENRE=Hip-Hop
TTITLE0=House The Dog
TTITLE1=Sista, Sista
TTITLE2=I'll Be There For You
TTITLE3=Livin' In The Life
TTITLE4=Could'a, Would'a, Should'a
TTITLE5=Life Ain't No Movie
TTITLE6=Blame It On The Horns
TTITLE7=Waves Of The Vibes
TTITLE8=Time To Get Black Up
TTITLE9=Earth Peace
EXTD=more info\nMillenniumMusicProjectFormat, syntax as follows:\nTitl
EXTD=e{Subtitle}[info](Lyricist;Composer;Date,Artist,Location)[info]\n
EXTD=corrections to: windking3@yahoo.com
EXTT0=
EXTT1=
EXTT2=
EXTT3=
EXTT4=
EXTT5=
EXTT6=
EXTT7=
EXTT8=
EXTT9=
PLAYORDER=
